<?xml version="1.0" encoding="UTF-8" standalone="no"?>
<!DOCTYPE svg PUBLIC "-//W3C//DTD SVG 1.1//EN"
 "http://www.w3.org/Graphics/SVG/1.1/DTD/svg11.dtd">
<!-- Generated by graphviz version 13.1.0 (20250701.0955)
 -->
<!-- Pages: 1 -->
<svg width="1531pt" height="210pt"
 viewBox="0.00 0.00 1531.00 210.00" xmlns="http://www.w3.org/2000/svg" xmlns:xlink="http://www.w3.org/1999/xlink">
<g id="graph0" class="graph" transform="scale(1 1) rotate(0) translate(4 206)">
<polygon fill="white" stroke="none" points="-4,4 -4,-206 1526.5,-206 1526.5,4 -4,4"/>
<!-- 4356093984 -->
<g id="node1" class="node">
<title>4356093984</title>
<polygon fill="none" stroke="black" points="690.38,-137.5 690.38,-173.5 874.12,-173.5 874.12,-137.5 690.38,-137.5"/>
<text xml:space="preserve" text-anchor="middle" x="701.75" y="-150.7" font-family="Times,serif" font-size="14.00">b</text>
<polyline fill="none" stroke="black" points="713.12,-138 713.12,-173.5"/>
<text xml:space="preserve" text-anchor="middle" x="753" y="-150.7" font-family="Times,serif" font-size="14.00">data 6.8814</text>
<polyline fill="none" stroke="black" points="792.88,-138 792.88,-173.5"/>
<text xml:space="preserve" text-anchor="middle" x="833.5" y="-150.7" font-family="Times,serif" font-size="14.00">grad 0.5000</text>
</g>
<!-- 4357165392+ -->
<g id="node11" class="node">
<title>4357165392+</title>
<ellipse fill="none" stroke="black" cx="966" cy="-127.5" rx="27" ry="18"/>
<text xml:space="preserve" text-anchor="middle" x="966" y="-122.45" font-family="Times,serif" font-size="14.00">+</text>
</g>
<!-- 4356093984&#45;&gt;4357165392+ -->
<g id="edge11" class="edge">
<title>4356093984&#45;&gt;4357165392+</title>
<path fill="none" stroke="black" d="M874.39,-141.46C893.45,-138.52 912.49,-135.59 928.16,-133.18"/>
<polygon fill="black" stroke="black" points="928.59,-136.65 937.94,-131.67 927.52,-129.73 928.59,-136.65"/>
</g>
<!-- 4357570640 -->
<g id="node2" class="node">
<title>4357570640</title>
<polygon fill="none" stroke="black" points="661.5,-82.5 661.5,-118.5 903,-118.5 903,-82.5 661.5,-82.5"/>
<text xml:space="preserve" text-anchor="middle" x="699.5" y="-95.7" font-family="Times,serif" font-size="14.00">x1w1x2w2</text>
<polyline fill="none" stroke="black" points="737.5,-83 737.5,-118.5"/>
<text xml:space="preserve" text-anchor="middle" x="779.62" y="-95.7" font-family="Times,serif" font-size="14.00">data &#45;6.0000</text>
<polyline fill="none" stroke="black" points="821.75,-83 821.75,-118.5"/>
<text xml:space="preserve" text-anchor="middle" x="862.38" y="-95.7" font-family="Times,serif" font-size="14.00">grad 0.5000</text>
</g>
<!-- 4357570640&#45;&gt;4357165392+ -->
<g id="edge12" class="edge">
<title>4357570640&#45;&gt;4357165392+</title>
<path fill="none" stroke="black" d="M903.47,-118.36C912.22,-119.66 920.56,-120.9 928.12,-122.02"/>
<polygon fill="black" stroke="black" points="927.41,-125.45 937.81,-123.46 928.43,-118.53 927.41,-125.45"/>
</g>
<!-- 4357570640+ -->
<g id="node3" class="node">
<title>4357570640+</title>
<ellipse fill="none" stroke="black" cx="598.5" cy="-100.5" rx="27" ry="18"/>
<text xml:space="preserve" text-anchor="middle" x="598.5" y="-95.45" font-family="Times,serif" font-size="14.00">+</text>
</g>
<!-- 4357570640+&#45;&gt;4357570640 -->
<g id="edge1" class="edge">
<title>4357570640+&#45;&gt;4357570640</title>
<path fill="none" stroke="black" d="M625.93,-100.5C632.99,-100.5 641.12,-100.5 649.88,-100.5"/>
<polygon fill="black" stroke="black" points="649.77,-104 659.77,-100.5 649.77,-97 649.77,-104"/>
</g>
<!-- 4357164624 -->
<g id="node4" class="node">
<title>4357164624</title>
<polygon fill="none" stroke="black" points="1338.75,-109.5 1338.75,-145.5 1522.5,-145.5 1522.5,-109.5 1338.75,-109.5"/>
<text xml:space="preserve" text-anchor="middle" x="1350.12" y="-122.7" font-family="Times,serif" font-size="14.00">o</text>
<polyline fill="none" stroke="black" points="1361.5,-110 1361.5,-145.5"/>
<text xml:space="preserve" text-anchor="middle" x="1401.38" y="-122.7" font-family="Times,serif" font-size="14.00">data 0.7071</text>
<polyline fill="none" stroke="black" points="1441.25,-110 1441.25,-145.5"/>
<text xml:space="preserve" text-anchor="middle" x="1481.88" y="-122.7" font-family="Times,serif" font-size="14.00">grad 1.0000</text>
</g>
<!-- 4357164624tanh -->
<g id="node5" class="node">
<title>4357164624tanh</title>
<ellipse fill="none" stroke="black" cx="1275.75" cy="-127.5" rx="27" ry="18"/>
<text xml:space="preserve" text-anchor="middle" x="1275.75" y="-122.45" font-family="Times,serif" font-size="14.00">tanh</text>
</g>
<!-- 4357164624tanh&#45;&gt;4357164624 -->
<g id="edge2" class="edge">
<title>4357164624tanh&#45;&gt;4357164624</title>
<path fill="none" stroke="black" d="M1303.03,-127.5C1310.17,-127.5 1318.36,-127.5 1327.07,-127.5"/>
<polygon fill="black" stroke="black" points="1326.81,-131 1336.81,-127.5 1326.81,-124 1326.81,-131"/>
</g>
<!-- 4356270256 -->
<g id="node6" class="node">
<title>4356270256</title>
<polygon fill="none" stroke="black" points="326.25,-110.5 326.25,-146.5 533.25,-146.5 533.25,-110.5 326.25,-110.5"/>
<text xml:space="preserve" text-anchor="middle" x="349.25" y="-123.7" font-family="Times,serif" font-size="14.00">x2w2</text>
<polyline fill="none" stroke="black" points="372.25,-111 372.25,-146.5"/>
<text xml:space="preserve" text-anchor="middle" x="412.12" y="-123.7" font-family="Times,serif" font-size="14.00">data 0.0000</text>
<polyline fill="none" stroke="black" points="452,-111 452,-146.5"/>
<text xml:space="preserve" text-anchor="middle" x="492.62" y="-123.7" font-family="Times,serif" font-size="14.00">grad 0.5000</text>
</g>
<!-- 4356270256&#45;&gt;4357570640+ -->
<g id="edge7" class="edge">
<title>4356270256&#45;&gt;4357570640+</title>
<path fill="none" stroke="black" d="M533.51,-111.25C543.16,-109.62 552.45,-108.06 560.82,-106.66"/>
<polygon fill="black" stroke="black" points="561.2,-110.15 570.48,-105.04 560.04,-103.24 561.2,-110.15"/>
</g>
<!-- 4356270256* -->
<g id="node7" class="node">
<title>4356270256*</title>
<ellipse fill="none" stroke="black" cx="261" cy="-128.5" rx="27" ry="18"/>
<text xml:space="preserve" text-anchor="middle" x="261" y="-123.45" font-family="Times,serif" font-size="14.00">*</text>
</g>
<!-- 4356270256*&#45;&gt;4356270256 -->
<g id="edge3" class="edge">
<title>4356270256*&#45;&gt;4356270256</title>
<path fill="none" stroke="black" d="M288.42,-128.5C296.08,-128.5 304.96,-128.5 314.47,-128.5"/>
<polygon fill="black" stroke="black" points="314.37,-132 324.37,-128.5 314.37,-125 314.37,-132"/>
</g>
<!-- 4356095200 -->
<g id="node8" class="node">
<title>4356095200</title>
<polygon fill="none" stroke="black" points="2.25,-165.5 2.25,-201.5 195.75,-201.5 195.75,-165.5 2.25,-165.5"/>
<text xml:space="preserve" text-anchor="middle" x="18.5" y="-178.7" font-family="Times,serif" font-size="14.00">w2</text>
<polyline fill="none" stroke="black" points="34.75,-166 34.75,-201.5"/>
<text xml:space="preserve" text-anchor="middle" x="74.62" y="-178.7" font-family="Times,serif" font-size="14.00">data 1.0000</text>
<polyline fill="none" stroke="black" points="114.5,-166 114.5,-201.5"/>
<text xml:space="preserve" text-anchor="middle" x="155.12" y="-178.7" font-family="Times,serif" font-size="14.00">grad 0.0000</text>
</g>
<!-- 4356095200&#45;&gt;4356270256* -->
<g id="edge8" class="edge">
<title>4356095200&#45;&gt;4356270256*</title>
<path fill="none" stroke="black" d="M172.12,-165.01C180.9,-162.35 189.7,-159.5 198,-156.5 208.09,-152.86 218.82,-148.27 228.47,-143.88"/>
<polygon fill="black" stroke="black" points="229.86,-147.09 237.45,-139.69 226.9,-140.75 229.86,-147.09"/>
</g>
<!-- 4353945872 -->
<g id="node9" class="node">
<title>4353945872</title>
<polygon fill="none" stroke="black" points="0,-55.5 0,-91.5 198,-91.5 198,-55.5 0,-55.5"/>
<text xml:space="preserve" text-anchor="middle" x="16.25" y="-68.7" font-family="Times,serif" font-size="14.00">w1</text>
<polyline fill="none" stroke="black" points="32.5,-56 32.5,-91.5"/>
<text xml:space="preserve" text-anchor="middle" x="74.62" y="-68.7" font-family="Times,serif" font-size="14.00">data &#45;3.0000</text>
<polyline fill="none" stroke="black" points="116.75,-56 116.75,-91.5"/>
<text xml:space="preserve" text-anchor="middle" x="157.38" y="-68.7" font-family="Times,serif" font-size="14.00">grad 1.0000</text>
</g>
<!-- 4357033424* -->
<g id="node14" class="node">
<title>4357033424*</title>
<ellipse fill="none" stroke="black" cx="261" cy="-73.5" rx="27" ry="18"/>
<text xml:space="preserve" text-anchor="middle" x="261" y="-68.45" font-family="Times,serif" font-size="14.00">*</text>
</g>
<!-- 4353945872&#45;&gt;4357033424* -->
<g id="edge10" class="edge">
<title>4353945872&#45;&gt;4357033424*</title>
<path fill="none" stroke="black" d="M198.14,-73.5C206.61,-73.5 214.8,-73.5 222.29,-73.5"/>
<polygon fill="black" stroke="black" points="222.29,-77 232.29,-73.5 222.29,-70 222.29,-77"/>
</g>
<!-- 4357165392 -->
<g id="node10" class="node">
<title>4357165392</title>
<polygon fill="none" stroke="black" points="1029,-109.5 1029,-145.5 1212.75,-145.5 1212.75,-109.5 1029,-109.5"/>
<text xml:space="preserve" text-anchor="middle" x="1040.38" y="-122.7" font-family="Times,serif" font-size="14.00">n</text>
<polyline fill="none" stroke="black" points="1051.75,-110 1051.75,-145.5"/>
<text xml:space="preserve" text-anchor="middle" x="1091.62" y="-122.7" font-family="Times,serif" font-size="14.00">data 0.8814</text>
<polyline fill="none" stroke="black" points="1131.5,-110 1131.5,-145.5"/>
<text xml:space="preserve" text-anchor="middle" x="1172.12" y="-122.7" font-family="Times,serif" font-size="14.00">grad 0.5000</text>
</g>
<!-- 4357165392&#45;&gt;4357164624tanh -->
<g id="edge14" class="edge">
<title>4357165392&#45;&gt;4357164624tanh</title>
<path fill="none" stroke="black" d="M1213.01,-127.5C1221.39,-127.5 1229.52,-127.5 1236.98,-127.5"/>
<polygon fill="black" stroke="black" points="1236.95,-131 1246.95,-127.5 1236.95,-124 1236.95,-131"/>
</g>
<!-- 4357165392+&#45;&gt;4357165392 -->
<g id="edge4" class="edge">
<title>4357165392+&#45;&gt;4357165392</title>
<path fill="none" stroke="black" d="M993.28,-127.5C1000.42,-127.5 1008.61,-127.5 1017.32,-127.5"/>
<polygon fill="black" stroke="black" points="1017.06,-131 1027.06,-127.5 1017.06,-124 1017.06,-131"/>
</g>
<!-- 4356470640 -->
<g id="node12" class="node">
<title>4356470640</title>
<polygon fill="none" stroke="black" points="1.5,-0.5 1.5,-36.5 196.5,-36.5 196.5,-0.5 1.5,-0.5"/>
<text xml:space="preserve" text-anchor="middle" x="16.25" y="-13.7" font-family="Times,serif" font-size="14.00">x1</text>
<polyline fill="none" stroke="black" points="31,-1 31,-36.5"/>
<text xml:space="preserve" text-anchor="middle" x="70.88" y="-13.7" font-family="Times,serif" font-size="14.00">data 2.0000</text>
<polyline fill="none" stroke="black" points="110.75,-1 110.75,-36.5"/>
<text xml:space="preserve" text-anchor="middle" x="153.62" y="-13.7" font-family="Times,serif" font-size="14.00">grad &#45;1.5000</text>
</g>
<!-- 4356470640&#45;&gt;4357033424* -->
<g id="edge13" class="edge">
<title>4356470640&#45;&gt;4357033424*</title>
<path fill="none" stroke="black" d="M168.91,-36.94C178.74,-39.93 188.67,-43.15 198,-46.5 207.96,-50.07 218.58,-54.47 228.18,-58.68"/>
<polygon fill="black" stroke="black" points="226.54,-61.78 237.1,-62.67 229.4,-55.39 226.54,-61.78"/>
</g>
<!-- 4357033424 -->
<g id="node13" class="node">
<title>4357033424</title>
<polygon fill="none" stroke="black" points="324,-55.5 324,-91.5 535.5,-91.5 535.5,-55.5 324,-55.5"/>
<text xml:space="preserve" text-anchor="middle" x="347" y="-68.7" font-family="Times,serif" font-size="14.00">x1w1</text>
<polyline fill="none" stroke="black" points="370,-56 370,-91.5"/>
<text xml:space="preserve" text-anchor="middle" x="412.12" y="-68.7" font-family="Times,serif" font-size="14.00">data &#45;6.0000</text>
<polyline fill="none" stroke="black" points="454.25,-56 454.25,-91.5"/>
<text xml:space="preserve" text-anchor="middle" x="494.88" y="-68.7" font-family="Times,serif" font-size="14.00">grad 0.5000</text>
</g>
<!-- 4357033424&#45;&gt;4357570640+ -->
<g id="edge9" class="edge">
<title>4357033424&#45;&gt;4357570640+</title>
<path fill="none" stroke="black" d="M535.88,-90.52C544.59,-91.93 552.96,-93.29 560.56,-94.52"/>
<polygon fill="black" stroke="black" points="559.91,-97.96 570.34,-96.1 561.03,-91.05 559.91,-97.96"/>
</g>
<!-- 4357033424*&#45;&gt;4357033424 -->
<g id="edge5" class="edge">
<title>4357033424*&#45;&gt;4357033424</title>
<path fill="none" stroke="black" d="M288.42,-73.5C295.52,-73.5 303.68,-73.5 312.42,-73.5"/>
<polygon fill="black" stroke="black" points="312.24,-77 322.24,-73.5 312.24,-70 312.24,-77"/>
</g>
<!-- 4353940432 -->
<g id="node15" class="node">
<title>4353940432</title>
<polygon fill="none" stroke="black" points="3.75,-110.5 3.75,-146.5 194.25,-146.5 194.25,-110.5 3.75,-110.5"/>
<text xml:space="preserve" text-anchor="middle" x="18.5" y="-123.7" font-family="Times,serif" font-size="14.00">x2</text>
<polyline fill="none" stroke="black" points="33.25,-111 33.25,-146.5"/>
<text xml:space="preserve" text-anchor="middle" x="73.12" y="-123.7" font-family="Times,serif" font-size="14.00">data 0.0000</text>
<polyline fill="none" stroke="black" points="113,-111 113,-146.5"/>
<text xml:space="preserve" text-anchor="middle" x="153.62" y="-123.7" font-family="Times,serif" font-size="14.00">grad 0.5000</text>
</g>
<!-- 4353940432&#45;&gt;4356270256* -->
<g id="edge6" class="edge">
<title>4353940432&#45;&gt;4356270256*</title>
<path fill="none" stroke="black" d="M194.46,-128.5C204.21,-128.5 213.66,-128.5 222.21,-128.5"/>
<polygon fill="black" stroke="black" points="222.12,-132 232.12,-128.5 222.12,-125 222.12,-132"/>
</g>
</g>
</svg>
