<?xml version="1.0" encoding="UTF-8" standalone="no"?>
<!DOCTYPE svg PUBLIC "-//W3C//DTD SVG 1.1//EN"
 "http://www.w3.org/Graphics/SVG/1.1/DTD/svg11.dtd">
<!-- Generated by graphviz version 13.1.0 (20250701.0955)
 -->
<!-- Pages: 1 -->
<svg width="811pt" height="100pt"
 viewBox="0.00 0.00 811.00 100.00" xmlns="http://www.w3.org/2000/svg" xmlns:xlink="http://www.w3.org/1999/xlink">
<g id="graph0" class="graph" transform="scale(1 1) rotate(0) translate(4 96)">
<polygon fill="white" stroke="none" points="-4,4 -4,-96 806.5,-96 806.5,4 -4,4"/>
<!-- 4357347984 -->
<g id="node1" class="node">
<title>4357347984</title>
<polygon fill="none" stroke="black" points="1.5,-55.5 1.5,-91.5 182.25,-91.5 182.25,-55.5 1.5,-55.5"/>
<text xml:space="preserve" text-anchor="middle" x="11.38" y="-68.7" font-family="Times,serif" font-size="14.00"> </text>
<polyline fill="none" stroke="black" points="21.25,-56 21.25,-91.5"/>
<text xml:space="preserve" text-anchor="middle" x="61.12" y="-68.7" font-family="Times,serif" font-size="14.00">data 2.0000</text>
<polyline fill="none" stroke="black" points="101,-56 101,-91.5"/>
<text xml:space="preserve" text-anchor="middle" x="141.62" y="-68.7" font-family="Times,serif" font-size="14.00">grad 0.0000</text>
</g>
<!-- 4357347264* -->
<g id="node5" class="node">
<title>4357347264*</title>
<ellipse fill="none" stroke="black" cx="246.75" cy="-65.5" rx="27" ry="18"/>
<text xml:space="preserve" text-anchor="middle" x="246.75" y="-60.45" font-family="Times,serif" font-size="14.00">*</text>
</g>
<!-- 4357347984&#45;&gt;4357347264* -->
<g id="edge4" class="edge">
<title>4357347984&#45;&gt;4357347264*</title>
<path fill="none" stroke="black" d="M182.69,-68.8C191.58,-68.33 200.22,-67.88 208.11,-67.47"/>
<polygon fill="black" stroke="black" points="208.13,-70.97 217.93,-66.96 207.76,-63.98 208.13,-70.97"/>
</g>
<!-- 4357347744 -->
<g id="node2" class="node">
<title>4357347744</title>
<polygon fill="none" stroke="black" points="619.5,-23.5 619.5,-59.5 802.5,-59.5 802.5,-23.5 619.5,-23.5"/>
<text xml:space="preserve" text-anchor="middle" x="630.5" y="-36.7" font-family="Times,serif" font-size="14.00">z</text>
<polyline fill="none" stroke="black" points="641.5,-24 641.5,-59.5"/>
<text xml:space="preserve" text-anchor="middle" x="681.38" y="-36.7" font-family="Times,serif" font-size="14.00">data 3.0000</text>
<polyline fill="none" stroke="black" points="721.25,-24 721.25,-59.5"/>
<text xml:space="preserve" text-anchor="middle" x="761.88" y="-36.7" font-family="Times,serif" font-size="14.00">grad 0.0000</text>
</g>
<!-- 4357347744+ -->
<g id="node3" class="node">
<title>4357347744+</title>
<ellipse fill="none" stroke="black" cx="556.5" cy="-41.5" rx="27" ry="18"/>
<text xml:space="preserve" text-anchor="middle" x="556.5" y="-36.45" font-family="Times,serif" font-size="14.00">+</text>
</g>
<!-- 4357347744+&#45;&gt;4357347744 -->
<g id="edge1" class="edge">
<title>4357347744+&#45;&gt;4357347744</title>
<path fill="none" stroke="black" d="M583.72,-41.5C590.9,-41.5 599.15,-41.5 607.91,-41.5"/>
<polygon fill="black" stroke="black" points="607.73,-45 617.73,-41.5 607.73,-38 607.73,-45"/>
</g>
<!-- 4357347264 -->
<g id="node4" class="node">
<title>4357347264</title>
<polygon fill="none" stroke="black" points="309.75,-47.5 309.75,-83.5 493.5,-83.5 493.5,-47.5 309.75,-47.5"/>
<text xml:space="preserve" text-anchor="middle" x="321.12" y="-60.7" font-family="Times,serif" font-size="14.00">y</text>
<polyline fill="none" stroke="black" points="332.5,-48 332.5,-83.5"/>
<text xml:space="preserve" text-anchor="middle" x="372.38" y="-60.7" font-family="Times,serif" font-size="14.00">data 2.0000</text>
<polyline fill="none" stroke="black" points="412.25,-48 412.25,-83.5"/>
<text xml:space="preserve" text-anchor="middle" x="452.88" y="-60.7" font-family="Times,serif" font-size="14.00">grad 0.0000</text>
</g>
<!-- 4357347264&#45;&gt;4357347744+ -->
<g id="edge6" class="edge">
<title>4357347264&#45;&gt;4357347744+</title>
<path fill="none" stroke="black" d="M493.76,-51.19C502.4,-49.84 510.79,-48.52 518.45,-47.32"/>
<polygon fill="black" stroke="black" points="518.99,-50.78 528.32,-45.77 517.9,-43.86 518.99,-50.78"/>
</g>
<!-- 4357347264*&#45;&gt;4357347264 -->
<g id="edge2" class="edge">
<title>4357347264*&#45;&gt;4357347264</title>
<path fill="none" stroke="black" d="M274.03,-65.5C281.17,-65.5 289.36,-65.5 298.07,-65.5"/>
<polygon fill="black" stroke="black" points="297.81,-69 307.81,-65.5 297.81,-62 297.81,-69"/>
</g>
<!-- 4357352304 -->
<g id="node6" class="node">
<title>4357352304</title>
<polygon fill="none" stroke="black" points="0,-0.5 0,-36.5 183.75,-36.5 183.75,-0.5 0,-0.5"/>
<text xml:space="preserve" text-anchor="middle" x="11.38" y="-13.7" font-family="Times,serif" font-size="14.00">x</text>
<polyline fill="none" stroke="black" points="22.75,-1 22.75,-36.5"/>
<text xml:space="preserve" text-anchor="middle" x="62.62" y="-13.7" font-family="Times,serif" font-size="14.00">data 1.0000</text>
<polyline fill="none" stroke="black" points="102.5,-1 102.5,-36.5"/>
<text xml:space="preserve" text-anchor="middle" x="143.12" y="-13.7" font-family="Times,serif" font-size="14.00">grad 0.0000</text>
</g>
<!-- 4357352304&#45;&gt;4357347744+ -->
<g id="edge3" class="edge">
<title>4357352304&#45;&gt;4357347744+</title>
<path fill="none" stroke="black" d="M184,-23.03C285.98,-28.1 446.35,-36.07 518.34,-39.65"/>
<polygon fill="black" stroke="black" points="517.84,-43.13 528,-40.13 518.19,-36.14 517.84,-43.13"/>
</g>
<!-- 4357352304&#45;&gt;4357347264* -->
<g id="edge5" class="edge">
<title>4357352304&#45;&gt;4357347264*</title>
<path fill="none" stroke="black" d="M152.86,-36.94C172.62,-43.02 193.92,-49.57 211.14,-54.86"/>
<polygon fill="black" stroke="black" points="209.77,-58.1 220.35,-57.69 211.82,-51.41 209.77,-58.1"/>
</g>
</g>
</svg>
